<?xml version="1.0" standalone="no"?><!DOCTYPE svg PUBLIC "-//W3C//DTD SVG 1.1//EN" "http://www.w3.org/Graphics/SVG/1.1/DTD/svg11.dtd"><svg t="1567154406249" class="icon" viewBox="0 0 1463 1024" version="1.1" xmlns="http://www.w3.org/2000/svg" p-id="9034" xmlns:xlink="http://www.w3.org/1999/xlink" width="714.35546875" height="500"><defs><style type="text/css"></style></defs><path d="M975.243668 0 487.607206 0c-19.236297 0-34.991043 15.740118-34.991043 34.976415l0 954.032542c0 19.221668 15.740118 34.991043 34.991043 34.991043l487.636462 0c19.221668 0 34.976415-15.740118 34.976415-34.991043L1010.220083 34.976415C1010.220083 15.740118 994.465336 0 975.243668 0zM849.981 504.956443l-307.634462 0 0-77.544949 307.634462 0L849.981 504.956443 849.981 504.956443zM849.981 393.897916l-307.634462 0 0-77.559578 307.634462 0L849.981 393.897916 849.981 393.897916zM849.981 282.751618l-307.634462 0 0-77.544949 307.634462 0L849.981 282.751618 849.981 282.751618zM849.981 171.649205l-307.634462 0L542.346538 94.148141l307.634462 0L849.981 171.649205 849.981 171.649205zM889.945686 933.465065c-21.664605 0-39.321038-17.656433-39.321038-39.321038s17.627177-39.321038 39.321038-39.321038 39.277153 17.627177 39.277153 39.321038C929.208211 915.808631 911.610291 933.465065 889.945686 933.465065zM889.945686 820.709647c-21.664605 0-39.321038-17.627177-39.321038-39.291782 0-21.679233 17.627177-39.321038 39.321038-39.321038s39.277153 17.627177 39.277153 39.321038C929.208211 803.067842 911.610291 820.709647 889.945686 820.709647z" p-id="9035"></path><path d="M412.358909 987.28281 131.201783 987.28281c-36.819588 0-66.763846-30.485507-66.763846-67.963372L64.437937 374.310538c0-3.496179 2.852531-6.348709 6.348709-6.348709 3.510807 0 6.363338 2.852531 6.363338 6.348709l0 545.023528c0 30.456251 24.253825 55.236697 54.066428 55.236697l281.157126 0c29.827231 0 54.081056-24.780446 54.081056-55.236697L466.454594 374.310538c0-3.496179 2.823274-6.348709 6.348709-6.348709 3.525435 0 6.363338 2.852531 6.363338 6.348709l0 545.023528C479.152012 956.797303 449.207754 987.28281 412.358909 987.28281z" p-id="9036"></path><path d="M425.93403 468.663476c0 14.438194-11.834345 26.228654-26.257911 26.228654L143.884573 494.89213c-14.438194 0-26.243282-11.79046-26.243282-26.228654l0-34.537564c0-14.423565 11.805088-26.257911 26.243282-26.257911l255.791546 0c14.423565 0 26.257911 11.834345 26.257911 26.257911L425.93403 468.663476z" p-id="9037"></path><path d="M291.031271 454.620248l-132.430565 0c-1.755403 0-3.174355-1.43358-3.174355-3.188983 0-1.755403 1.418951-3.174355 3.174355-3.174355l132.430565 0c1.755403 0 3.174355 1.418951 3.174355 3.174355C294.205626 453.186669 292.786674 454.620248 291.031271 454.620248z" p-id="9038"></path><path d="M374.983443 464.596791c-7.270296 0-13.180155-5.89523-13.180155-13.165526s5.909858-13.194783 13.180155-13.194783c7.270296 0 13.180155 5.909858 13.180155 13.194783S382.239111 464.596791 374.983443 464.596791zM374.983443 444.585192c-3.774118 0-6.846074 3.071956-6.846074 6.846074 0 3.774118 3.057328 6.816817 6.846074 6.816817 3.759489 0 6.816817-3.042699 6.816817-6.816817C381.80026 447.657148 378.742932 444.585192 374.983443 444.585192z" p-id="9039"></path><path d="M425.93403 579.590349c0 14.394309-11.834345 26.228654-26.257911 26.228654L143.884573 605.819003c-14.438194 0-26.243282-11.834345-26.243282-26.228654l0-34.581449c0-14.408937 11.805088-26.228654 26.243282-26.228654l255.791546 0c14.423565 0 26.257911 11.819717 26.257911 26.228654L425.93403 579.590349z" p-id="9040"></path><path d="M291.031271 565.444722l-132.430565 0c-1.755403 0-3.174355-1.404323-3.174355-3.174355 0-1.740775 1.418951-3.174355 3.174355-3.174355l132.430565 0c1.755403 0 3.174355 1.43358 3.174355 3.174355C294.205626 564.055028 292.786674 565.444722 291.031271 565.444722z" p-id="9041"></path><path d="M374.983443 575.479779c-7.270296 0-13.180155-5.909858-13.180155-13.165526 0-7.284925 5.909858-13.165526 13.180155-13.165526 7.270296 0 13.180155 5.880602 13.180155 13.165526C388.163598 569.56992 382.239111 575.479779 374.983443 575.479779zM374.983443 555.482807c-3.774118 0-6.846074 3.057328-6.846074 6.831445 0 3.744861 3.057328 6.846074 6.846074 6.846074 3.759489 0 6.816817-3.101213 6.816817-6.846074C381.80026 558.540135 378.742932 555.482807 374.983443 555.482807z" p-id="9042"></path><path d="M425.93403 690.444079c0 14.423565-11.834345 26.243282-26.257911 26.243282L143.884573 716.687362c-14.438194 0-26.243282-11.819717-26.243282-26.243282l0-34.56682c0-14.423565 11.805088-26.228654 26.243282-26.228654l255.791546 0c14.423565 0 26.257911 11.805088 26.257911 26.228654L425.93403 690.444079z" p-id="9043"></path><path d="M291.031271 676.32771l-132.430565 0c-1.755403 0-3.174355-1.404323-3.174355-3.174355 0-1.740775 1.418951-3.174355 3.174355-3.174355l132.430565 0c1.755403 0 3.174355 1.43358 3.174355 3.174355C294.205626 674.938015 292.786674 676.32771 291.031271 676.32771z" p-id="9044"></path><path d="M374.983443 686.362766c-7.270296 0-13.180155-5.909858-13.180155-13.165526 0-7.284925 5.909858-13.180155 13.180155-13.180155 7.270296 0 13.180155 5.89523 13.180155 13.180155C388.163598 680.452908 382.239111 686.362766 374.983443 686.362766zM374.983443 666.336538c-3.774118 0-6.846074 3.071956-6.846074 6.860702 0 3.744861 3.057328 6.831445 6.846074 6.831445 3.759489 0 6.816817-3.086584 6.816817-6.831445C381.80026 669.408494 378.742932 666.336538 374.983443 666.336538z" p-id="9045"></path><path d="M425.93403 804.413651c0 14.423565-11.834345 26.243282-26.257911 26.243282L143.884573 830.656933c-14.438194 0-26.243282-11.819717-26.243282-26.243282l0-34.56682c0-14.423565 11.805088-26.257911 26.243282-26.257911l255.791546 0c14.423565 0 26.257911 11.834345 26.257911 26.257911L425.93403 804.413651z" p-id="9046"></path><path d="M291.031271 790.297281l-132.430565 0c-1.755403 0-3.174355-1.404323-3.174355-3.174355 0-1.740775 1.418951-3.203611 3.174355-3.203611l132.430565 0c1.755403 0 3.174355 1.462836 3.174355 3.203611C294.205626 788.907587 292.786674 790.297281 291.031271 790.297281z" p-id="9047"></path><path d="M374.983443 800.332338c-7.270296 0-13.180155-5.909858-13.180155-13.165526 0-7.284925 5.909858-13.194783 13.180155-13.194783 7.270296 0 13.180155 5.909858 13.180155 13.194783C388.163598 794.42248 382.239111 800.332338 374.983443 800.332338zM374.983443 780.30611c-3.774118 0-6.846074 3.057328-6.846074 6.860702 0 3.744861 3.057328 6.831445 6.846074 6.831445 3.759489 0 6.816817-3.086584 6.816817-6.831445C381.80026 783.363438 378.742932 780.30611 374.983443 780.30611z" p-id="9048"></path><path d="M425.93403 913.760661c0 14.423565-11.834345 26.243282-26.257911 26.243282L143.884573 940.003943c-14.438194 0-26.243282-11.819717-26.243282-26.243282l0-34.56682c0-14.408937 11.805088-26.228654 26.243282-26.228654l255.791546 0c14.423565 0 26.257911 11.819717 26.257911 26.228654L425.93403 913.760661z" p-id="9049"></path><path d="M291.031271 899.673548l-132.430565 0c-1.755403 0-3.174355-1.43358-3.174355-3.188983s1.418951-3.188983 3.174355-3.188983l132.430565 0c1.755403 0 3.174355 1.43358 3.174355 3.188983S292.786674 899.673548 291.031271 899.673548z" p-id="9050"></path><path d="M374.983443 909.679347c-7.270296 0-13.180155-5.909858-13.180155-13.165526 0-7.270296 5.909858-13.180155 13.180155-13.180155 7.270296 0 13.180155 5.909858 13.180155 13.180155C388.163598 903.725604 382.239111 909.679347 374.983443 909.679347zM374.983443 889.638491c-3.774118 0-6.846074 3.057328-6.846074 6.846074 0 3.759489 3.057328 6.816817 6.846074 6.816817 3.759489 0 6.816817-3.057328 6.816817-6.816817C381.80026 892.695819 378.742932 889.638491 374.983443 889.638491z" p-id="9051"></path><path d="M167.172926 993.26581l0 9.11347c0 11.922115-8.616105 21.606091-19.250925 21.606091l0 0c-10.63482 0-19.250925-9.654719-19.250925-21.606091L128.671076 993.26581 167.172926 993.26581z" p-id="9052"></path><path d="M413.587692 993.26581l0 9.11347c0 11.922115-8.601477 21.606091-19.250925 21.606091l0 0c-10.63482 0-19.265553-9.654719-19.265553-21.606091L375.071213 993.26581 413.587692 993.26581z" p-id="9053"></path><path d="M1332.0148 987.28281 1050.843045 987.28281c-36.834217 0-66.763846-30.485507-66.763846-67.963372L984.079199 374.310538c0-3.496179 2.837902-6.348709 6.363338-6.348709 3.496179 0 6.363338 2.852531 6.363338 6.348709l0 545.023528c0 30.456251 24.239197 55.236697 54.066428 55.236697l281.157126 0c29.827231 0 54.066428-24.780446 54.066428-55.236697L1386.095856 374.310538c0-3.496179 2.808646-6.348709 6.363338-6.348709 3.510807 0 6.377966 2.852531 6.377966 6.348709l0 545.023528C1398.778646 956.797303 1368.834388 987.28281 1332.0148 987.28281z" p-id="9054"></path><path d="M1345.546035 468.663476c0 14.438194-11.834345 26.228654-26.257911 26.228654L1063.525835 494.89213c-14.438194 0-26.257911-11.79046-26.257911-26.228654l0-34.537564c0-14.423565 11.819717-26.257911 26.257911-26.257911l255.762289 0c14.423565 0 26.257911 11.834345 26.257911 26.257911L1345.546035 468.663476z" p-id="9055"></path><path d="M1210.672533 454.620248l-132.445194 0c-1.755403 0-3.174355-1.43358-3.174355-3.188983 0-1.755403 1.418951-3.174355 3.174355-3.174355l132.445194 0c1.740775 0 3.174355 1.418951 3.174355 3.174355C1213.846888 453.186669 1212.413308 454.620248 1210.672533 454.620248z" p-id="9056"></path><path d="M1294.610077 464.596791c-7.270296 0-13.165526-5.89523-13.165526-13.165526s5.89523-13.194783 13.165526-13.194783c7.255668 0 13.165526 5.909858 13.165526 13.194783S1301.865745 464.596791 1294.610077 464.596791zM1294.610077 444.585192c-3.774118 0-6.846074 3.071956-6.846074 6.846074 0 3.774118 3.071956 6.816817 6.846074 6.816817s6.816817-3.042699 6.816817-6.816817C1301.426894 447.657148 1298.384195 444.585192 1294.610077 444.585192z" p-id="9057"></path><path d="M1345.546035 579.590349c0 14.394309-11.834345 26.228654-26.257911 26.228654L1063.525835 605.819003c-14.438194 0-26.257911-11.834345-26.257911-26.228654l0-34.581449c0-14.408937 11.819717-26.228654 26.257911-26.228654l255.762289 0c14.423565 0 26.257911 11.819717 26.257911 26.228654L1345.546035 579.590349z" p-id="9058"></path><path d="M1210.672533 565.444722l-132.445194 0c-1.755403 0-3.174355-1.404323-3.174355-3.174355 0-1.740775 1.418951-3.174355 3.174355-3.174355l132.445194 0c1.740775 0 3.174355 1.43358 3.174355 3.174355C1213.846888 564.055028 1212.413308 565.444722 1210.672533 565.444722z" p-id="9059"></path><path d="M1294.610077 575.479779c-7.270296 0-13.165526-5.909858-13.165526-13.165526 0-7.284925 5.89523-13.165526 13.165526-13.165526 7.255668 0 13.165526 5.880602 13.165526 13.165526C1307.775603 569.56992 1301.865745 575.479779 1294.610077 575.479779zM1294.610077 555.482807c-3.774118 0-6.846074 3.057328-6.846074 6.831445 0 3.744861 3.071956 6.846074 6.846074 6.846074s6.816817-3.101213 6.816817-6.846074C1301.426894 558.540135 1298.384195 555.482807 1294.610077 555.482807z" p-id="9060"></path><path d="M1345.546035 690.444079c0 14.423565-11.834345 26.243282-26.257911 26.243282L1063.525835 716.687362c-14.438194 0-26.257911-11.819717-26.257911-26.243282l0-34.56682c0-14.423565 11.819717-26.228654 26.257911-26.228654l255.762289 0c14.423565 0 26.257911 11.805088 26.257911 26.228654L1345.546035 690.444079z" p-id="9061"></path><path d="M1210.672533 676.32771l-132.445194 0c-1.755403 0-3.174355-1.404323-3.174355-3.174355 0-1.740775 1.418951-3.174355 3.174355-3.174355l132.445194 0c1.740775 0 3.174355 1.43358 3.174355 3.174355C1213.846888 674.938015 1212.413308 676.32771 1210.672533 676.32771z" p-id="9062"></path><path d="M1294.610077 686.362766c-7.270296 0-13.165526-5.909858-13.165526-13.165526 0-7.284925 5.89523-13.180155 13.165526-13.180155 7.255668 0 13.165526 5.89523 13.165526 13.180155C1307.775603 680.452908 1301.865745 686.362766 1294.610077 686.362766zM1294.610077 666.336538c-3.774118 0-6.846074 3.071956-6.846074 6.860702 0 3.744861 3.071956 6.831445 6.846074 6.831445s6.816817-3.086584 6.816817-6.831445C1301.426894 669.408494 1298.384195 666.336538 1294.610077 666.336538z" p-id="9063"></path><path d="M1345.546035 804.413651c0 14.423565-11.834345 26.243282-26.257911 26.243282L1063.525835 830.656933c-14.438194 0-26.257911-11.819717-26.257911-26.243282l0-34.56682c0-14.423565 11.819717-26.257911 26.257911-26.257911l255.762289 0c14.423565 0 26.257911 11.834345 26.257911 26.257911L1345.546035 804.413651z" p-id="9064"></path><path d="M1210.672533 790.297281l-132.445194 0c-1.755403 0-3.174355-1.404323-3.174355-3.174355 0-1.740775 1.418951-3.203611 3.174355-3.203611l132.445194 0c1.740775 0 3.174355 1.462836 3.174355 3.203611C1213.846888 788.907587 1212.413308 790.297281 1210.672533 790.297281z" p-id="9065"></path><path d="M1294.610077 800.332338c-7.270296 0-13.165526-5.909858-13.165526-13.165526 0-7.284925 5.89523-13.194783 13.165526-13.194783 7.255668 0 13.165526 5.909858 13.165526 13.194783C1307.775603 794.42248 1301.865745 800.332338 1294.610077 800.332338zM1294.610077 780.30611c-3.774118 0-6.846074 3.057328-6.846074 6.860702 0 3.744861 3.071956 6.831445 6.846074 6.831445s6.816817-3.086584 6.816817-6.831445C1301.426894 783.363438 1298.384195 780.30611 1294.610077 780.30611z" p-id="9066"></path><path d="M1345.546035 913.760661c0 14.423565-11.834345 26.243282-26.257911 26.243282L1063.525835 940.003943c-14.438194 0-26.257911-11.819717-26.257911-26.243282l0-34.56682c0-14.408937 11.819717-26.228654 26.257911-26.228654l255.762289 0c14.423565 0 26.257911 11.819717 26.257911 26.228654L1345.546035 913.760661z" p-id="9067"></path><path d="M1210.672533 899.673548l-132.445194 0c-1.755403 0-3.174355-1.43358-3.174355-3.188983s1.418951-3.188983 3.174355-3.188983l132.445194 0c1.740775 0 3.174355 1.43358 3.174355 3.188983S1212.413308 899.673548 1210.672533 899.673548z" p-id="9068"></path><path d="M1294.610077 909.679347c-7.270296 0-13.165526-5.909858-13.165526-13.165526 0-7.270296 5.89523-13.180155 13.165526-13.180155 7.255668 0 13.165526 5.909858 13.165526 13.180155C1307.775603 903.725604 1301.865745 909.679347 1294.610077 909.679347zM1294.610077 889.638491c-3.774118 0-6.846074 3.057328-6.846074 6.846074 0 3.759489 3.071956 6.816817 6.846074 6.816817s6.816817-3.057328 6.816817-6.816817C1301.426894 892.695819 1298.384195 889.638491 1294.610077 889.638491z" p-id="9069"></path><path d="M1086.814188 993.26581l0 9.11347c0 11.922115-8.630734 21.606091-19.250925 21.606091l0 0c-10.63482 0-19.236297-9.654719-19.236297-21.606091L1048.326967 993.26581 1086.814188 993.26581z" p-id="9070"></path><path d="M1333.214326 993.26581l0 9.11347c0 11.922115-8.601477 21.606091-19.221668 21.606091l0 0c-10.63482 0-19.265553-9.654719-19.265553-21.606091L1294.727104 993.26581 1333.214326 993.26581z" p-id="9071"></path></svg>